<svg width="33" height="32" viewBox="0 0 33 32" fill="none" xmlns="http://www.w3.org/2000/svg">
<g id="Racket free icon">
<g id="Group">
<path id="18-Music copy" d="M25.5971 23.4189C25.3886 23.2088 25.1223 23.0654 24.8321 23.0069L23.5541 22.7469L15.8691 15.0439L15.8661 15.0399L15.8446 15.0179C18.1961 12.2399 17.6466 7.60844 14.4881 4.42794C11.1851 1.10394 6.27011 0.61094 3.53111 3.32994C0.792106 6.04894 1.25211 10.9684 4.55461 14.2939C6.05713 15.8498 8.04722 16.8442 10.1936 17.1114C10.471 17.141 10.7497 17.1561 11.0286 17.1564C12.5247 17.1827 13.9813 16.676 15.1381 15.7269L22.7926 23.3984L23.0616 24.7639C23.1177 25.0554 23.2594 25.3234 23.4686 25.5339L28.1881 30.2854C28.2886 30.3684 28.4114 30.4198 28.5411 30.4329H28.5431C28.6751 30.4331 28.8019 30.3809 28.8956 30.2879L30.3146 28.8779C30.4087 28.7845 30.4618 28.6575 30.4623 28.525C30.4627 28.3924 30.4105 28.265 30.3171 28.1709L25.5971 23.4189ZM16.0936 12.4299L15.8756 12.2109L16.2166 11.8724C16.1849 12.0602 16.1437 12.2463 16.0931 12.4299H16.0936ZM16.0901 9.17944C16.1321 9.35244 16.1691 9.52494 16.1981 9.69744L15.8856 9.38244L16.0901 9.17944ZM15.1706 11.5009L14.4666 10.7919L15.1756 10.0874L15.8801 10.7969L15.1706 11.5009ZM5.28661 7.22494L4.58161 6.51544L5.29161 5.81094L5.99611 6.52094L5.28661 7.22494ZM6.70061 7.22994L7.40511 7.93994L6.69561 8.64444L5.99161 7.93494L6.70061 7.22994ZM5.28161 8.63994L5.98661 9.34894L5.27661 10.0539L4.57211 9.34394L5.28161 8.63994ZM6.69111 10.0584L7.39561 10.7679L6.68561 11.4724L5.98161 10.7634L6.69111 10.0584ZM8.09961 11.4774L8.80411 12.1874L8.09461 12.8914L7.39011 12.1824L8.09961 11.4774ZM8.10461 10.0629L7.40011 9.35394L8.10961 8.64894L8.81411 9.35894L8.10461 10.0629ZM8.11461 7.23494L7.40961 6.52544L8.11961 5.82094L8.82361 6.53044L8.11461 7.23494ZM9.52861 7.23994L10.2336 7.94944L9.52361 8.65344L8.81961 7.94444L9.52861 7.23994ZM9.51861 10.0684L10.2236 10.7774L9.51361 11.4824L8.80961 10.7724L9.51861 10.0684ZM10.9286 11.4874L11.6326 12.1969L10.9231 12.9014L10.2186 12.1914L10.9286 11.4874ZM10.9336 10.0724L10.2286 9.36344L10.9381 8.65894L11.6426 9.36844L10.9336 10.0724ZM10.9426 7.24444L10.2381 6.53494L10.9476 5.83044L11.6521 6.53994L10.9426 7.24444ZM12.3571 7.24944L13.0616 7.95944L12.3521 8.66344L11.6476 7.95394L12.3571 7.24944ZM12.3471 10.0779L13.0521 10.7879L12.3421 11.4919L11.6381 10.7824L12.3471 10.0779ZM13.7571 11.4969L14.4611 12.2064L13.7516 12.9109L13.0471 12.2014L13.7571 11.4969ZM13.7621 10.0824L13.0571 9.37344L13.7666 8.66844L14.4711 9.37844L13.7621 10.0824ZM15.7501 8.10794L15.1806 8.67344L14.4761 7.96394L15.2921 7.15394C15.4644 7.46216 15.6173 7.78077 15.7501 8.10794ZM14.7496 6.28294L13.7711 7.25444L13.0666 6.54494L14.1166 5.50244C14.3415 5.75085 14.5528 6.01123 14.7496 6.28244V6.28294ZM13.4096 4.79494L12.3616 5.83544L11.6576 5.12594L12.6306 4.15944C12.9016 4.35701 13.1616 4.56915 13.4096 4.79494ZM10.8141 3.14494C11.1427 3.27725 11.4627 3.43005 11.7721 3.60244L10.9521 4.41594L10.2481 3.70694L10.8141 3.14494ZM9.53361 5.82544L8.82861 5.11644L9.53861 4.41144L10.2431 5.12144L9.53361 5.82544ZM9.74711 2.79494L9.54311 2.99744L9.23311 2.68544C9.40461 2.71544 9.57561 2.75144 9.74711 2.79494ZM8.12911 2.99294L8.83361 3.70194L8.12411 4.40644L7.41961 3.69694L8.12911 2.99294ZM6.70511 5.81594L6.00011 5.10644L6.71011 4.40194L7.41461 5.11144L6.70511 5.81594ZM7.05861 2.64594L6.71461 2.98744L6.49261 2.76344C6.67915 2.71467 6.86806 2.67545 7.05861 2.64594ZM5.46861 3.15244L6.00511 3.69244L5.29561 4.39644L4.61011 3.70644C4.8761 3.49211 5.16384 3.30676 5.46861 3.15244ZM3.90361 4.41444L4.58611 5.10144L3.87661 5.80594L3.34611 5.27144C3.50148 4.96723 3.68833 4.67966 3.90361 4.41444ZM2.94961 6.29144L3.16711 6.51044L2.82661 6.84894C2.85819 6.66115 2.89924 6.47508 2.94961 6.29144ZM2.95311 9.54244C2.91085 9.37111 2.87466 9.19833 2.84461 9.02444L3.15761 9.33944L2.95311 9.54244ZM3.87211 7.22044L4.57661 7.92994L3.86661 8.63444L3.16211 7.92494L3.87211 7.22044ZM3.29311 10.6144L3.86211 10.0494L4.56661 10.7584L3.75111 11.5684C3.57868 11.2602 3.42605 10.9416 3.29311 10.6144ZM4.29311 12.4399L5.27161 11.4684L5.97561 12.1774L4.92561 13.2199C4.70086 12.9715 4.48972 12.7112 4.29311 12.4399ZM5.63061 13.9299L6.68061 12.8869L7.38511 13.5964L6.40561 14.5684C6.13601 14.3697 5.87731 14.1565 5.63061 13.9299ZM8.22261 15.5829C7.89653 15.448 7.57924 15.2927 7.27261 15.1179L8.09011 14.3059L8.79461 15.0159L8.22261 15.5829ZM9.29411 15.9289L9.49911 15.7249L9.81311 16.0409C9.63911 16.0109 9.46611 15.9719 9.29411 15.9289ZM9.50411 14.3104L8.79961 13.6014L9.50911 12.8964L10.2136 13.6064L9.50411 14.3104ZM10.9136 15.7294L10.2091 15.0204L10.9186 14.3154L11.6231 15.0254L10.9136 15.7294ZM12.3376 12.9064L13.0421 13.6154L12.3326 14.3204L11.6281 13.6104L12.3376 12.9064ZM11.9861 16.0739L12.3276 15.7349L12.5466 15.9549C12.3621 16.0043 12.1752 16.0441 11.9866 16.0744L11.9861 16.0739ZM13.5701 15.5659L13.0376 15.0299L13.7471 14.3249L14.4301 15.0134C14.1635 15.2273 13.8753 15.4121 13.5701 15.5659ZM15.1391 14.3074L14.4566 13.6204L15.1661 12.9159L15.6966 13.4504C15.5413 13.755 15.3545 14.0419 15.1391 14.3074ZM24.1781 24.8284C24.1084 24.7585 24.0612 24.6694 24.0426 24.5724L23.8976 23.8369L24.6331 23.9869C24.7296 24.0062 24.818 24.0539 24.8871 24.1239L27.8446 27.1019L27.1351 27.8069L24.1781 24.8284ZM28.5451 29.2259L27.8401 28.5159L28.5496 27.8114L29.2546 28.5209L28.5451 29.2259ZM23.6321 10.6749C23.9201 10.6755 24.2049 10.6137 24.4668 10.4939C24.7287 10.3742 24.9616 10.1992 25.1496 9.98094L26.0621 8.92194C26.6931 8.60994 29.5436 7.17894 30.2011 6.41444C30.3914 6.1955 30.5138 5.9259 30.5535 5.63855C30.5931 5.35119 30.5482 5.05851 30.4243 4.79623C30.3004 4.53395 30.1029 4.31341 29.8557 4.16153C29.6086 4.00965 29.3226 3.933 29.0326 3.94094C28.989 3.57337 28.8093 3.23548 28.5288 2.9939C28.2484 2.75233 27.8876 2.62461 27.5176 2.63594C27.4819 2.34841 27.3635 2.07742 27.1767 1.85591C26.99 1.6344 26.7429 1.47188 26.4655 1.38811C26.1882 1.30434 25.8924 1.30292 25.6143 1.38401C25.3361 1.46511 25.0875 1.62523 24.8986 1.84494C24.2396 2.60944 23.2466 5.63794 23.0316 6.30994L22.1186 7.36994C21.8685 7.65981 21.7068 8.01542 21.6529 8.39449C21.599 8.77356 21.6551 9.16013 21.8145 9.50825C21.9739 9.85636 22.23 10.1514 22.5522 10.3582C22.8744 10.565 23.2492 10.675 23.6321 10.6749ZM29.5646 5.39794C29.5696 5.46345 29.5616 5.52931 29.541 5.59171C29.5204 5.6541 29.4876 5.71179 29.4446 5.76144C29.0491 6.22094 27.1286 7.27094 25.8251 7.92294L25.7421 7.85094C25.7421 7.85094 27.0996 6.49994 28.6866 5.10894C28.7783 5.01544 28.8984 4.95496 29.0281 4.93694C29.0936 4.93137 29.1596 4.93908 29.222 4.95962C29.2845 4.98015 29.3422 5.01308 29.3916 5.05644C29.4415 5.09913 29.4825 5.15129 29.5121 5.20991C29.5417 5.26853 29.5599 5.33244 29.5646 5.39794ZM28.0486 4.09294C28.0556 4.15457 28.0499 4.21699 28.0319 4.27633C28.0138 4.33567 27.9838 4.39067 27.9436 4.43794C27.2586 5.18294 24.9796 7.19444 24.9796 7.19444L24.9001 7.12594C24.9001 7.12594 26.5521 4.57394 27.1871 3.78594C27.228 3.73919 27.278 3.70131 27.334 3.67465C27.3901 3.64799 27.4511 3.63311 27.5131 3.63094C27.5786 3.62603 27.6445 3.6341 27.7069 3.65467C27.7692 3.67525 27.827 3.70793 27.8767 3.75085C27.9264 3.79376 27.9672 3.84607 27.9967 3.90477C28.0262 3.96347 28.0439 4.02742 28.0486 4.09294ZM25.6566 2.49794C25.7212 2.42316 25.8065 2.36919 25.9017 2.34285C25.997 2.31652 26.0979 2.31899 26.1917 2.34997C26.2856 2.38094 26.3681 2.43903 26.429 2.51689C26.4898 2.59475 26.5262 2.6889 26.5336 2.78744C26.5309 2.91773 26.4891 3.04421 26.4136 3.15044C25.7924 4.34501 25.0281 5.45954 24.1376 6.46944L24.0546 6.39744C24.5066 5.01194 25.2611 2.95744 25.6566 2.49794ZM22.8766 8.02294L23.5296 7.26494L25.0446 8.56994L24.3921 9.32794C24.3074 9.43057 24.203 9.51525 24.0851 9.57702C23.9673 9.6388 23.8382 9.67643 23.7056 9.6877C23.573 9.69897 23.4395 9.68366 23.3129 9.64266C23.1863 9.60166 23.0691 9.53581 22.9683 9.44895C22.8675 9.3621 22.785 9.25599 22.7257 9.13685C22.6664 9.01771 22.6315 8.88793 22.623 8.75512C22.6145 8.62231 22.6326 8.48914 22.6762 8.36341C22.7199 8.23768 22.7877 8.12193 22.8766 8.02294Z" fill="#141414"/>
</g>
</g>
</svg>
