<svg width="33" height="32" viewBox="0 0 33 32" fill="none" xmlns="http://www.w3.org/2000/svg">
<g id="ball" clip-path="url(#clip0_2020_8800)">
<g id="Group">
<path id="Vector" d="M18.6737 2.00719L30.5922 13.9261M14.5255 29.9928L2.60705 18.0739M12.5829 20.0167L20.6163 11.9833M15.1797 14.5799L18.0195 17.4201M18.0195 11.7397L20.8598 14.5799M12.3394 17.4201L15.1797 20.2603M24.6329 24.0333C29.6538 19.0125 31.6621 12.1997 31.6621 6.9625C31.6621 1.94169 30.6579 0.9375 25.6371 0.9375C20.3999 0.9375 13.5871 2.94581 8.5663 7.96669C3.54548 12.9876 1.53711 19.8003 1.53711 25.0375C1.53711 30.0583 2.5413 31.0625 7.56211 31.0625C12.7994 31.0625 19.6121 29.0542 24.6329 24.0333Z" stroke="#141414" stroke-miterlimit="10" stroke-linecap="round" stroke-linejoin="round"/>
</g>
</g>
<defs>
<clipPath id="clip0_2020_8800">
<rect width="32" height="32" fill="white" transform="translate(0.599609)"/>
</clipPath>
</defs>
</svg>
