<svg width="33" height="32" viewBox="0 0 33 32" fill="none" xmlns="http://www.w3.org/2000/svg">
<g id="Soccer Ball Variant free icon" clip-path="url(#clip0_2020_8820)">
<g id="Group">
<path id="Vector" d="M10.7796 1.17085C8.79676 1.97451 6.99648 3.16994 5.48645 4.68558C3.99845 6.16979 2.81841 7.93343 2.01415 9.87513C1.20989 11.8168 0.797272 13.8983 0.800001 16C0.800001 18.0777 1.19441 20.1037 1.97173 22.02C2.77528 24.0029 3.97071 25.8032 5.48645 27.3131C6.99616 28.8292 8.79652 30.0246 10.7796 30.8278C12.6917 31.6046 14.7366 32.0024 16.8004 31.9991C18.9019 32.0016 20.9832 31.5889 22.9247 30.7847C24.8662 29.9806 26.6297 28.8008 28.114 27.3131C29.6302 25.8036 30.8257 24.0032 31.6287 22.02C32.4049 20.108 32.8026 18.0635 32.7996 16C32.7996 13.9219 32.4056 11.8959 31.6287 9.97868C30.824 7.99427 29.6408 6.21236 28.114 4.68558C26.5872 3.15881 24.8071 1.97558 22.8209 1.17085C20.9087 0.394885 18.8641 -0.00274112 16.8004 1.42222e-05C14.7223 1.42222e-05 12.6968 0.393979 10.7796 1.17085ZM4.7989 22.7354C4.02821 22.2517 3.3181 21.6946 2.68935 21.0384C1.73255 18.3396 1.5637 15.4242 2.20253 12.633C2.50179 12.0418 2.84437 11.4735 3.22746 10.9329C3.3464 10.7653 3.4565 10.5906 3.58384 10.4279L7.19452 12.5644V12.6551C7.18647 14.5933 7.38104 16.5271 7.77507 18.4248C7.7764 18.4337 7.77773 18.4385 7.7795 18.4465L4.9793 22.8371C4.91761 22.8061 4.85741 22.7721 4.7989 22.7354ZM15.5345 30.158C16.1539 30.4745 16.7965 30.7435 17.4566 30.9627C14.619 31.0888 11.8039 30.407 9.33855 28.9964L15.3913 30.0748C15.4377 30.1045 15.485 30.1328 15.5345 30.158ZM15.5124 29.0654L8.36978 27.7924C7.5341 26.7777 6.78243 25.7041 6.13643 24.5567C5.97195 24.2649 5.78845 23.9814 5.64917 23.6768L8.44672 19.2906C8.50862 19.306 8.57759 19.3224 8.65586 19.3432C10.4059 19.8114 12.1869 20.1444 13.9803 20.4053C14.0851 20.4198 14.1727 20.4327 14.2474 20.4406L17.6008 26.2387C17.0197 27.0577 16.4291 27.8698 15.829 28.675C15.7291 28.8089 15.623 28.9376 15.5124 29.0654ZM27.3959 26.5955C26.8365 27.1557 26.2332 27.6704 25.5919 28.1347C25.4875 27.2999 25.3065 26.4765 25.0511 25.6749L28.6291 19.0001C29.6147 18.5513 30.5653 18.0423 31.4479 17.4114C31.5633 17.3296 31.6592 17.2381 31.7335 17.1381C31.4744 20.5874 30.0285 23.9633 27.3959 26.5955ZM27.2372 17.9389C27.3703 18.1927 27.5016 18.4491 27.6334 18.7091L24.1774 25.1558C24.1575 25.1602 24.1385 25.1647 24.1186 25.1673C22.2554 25.518 20.3642 25.6999 18.4683 25.7107L15.0194 19.7473C15.556 18.7503 16.0881 17.7509 16.6156 16.749C16.9738 16.0699 17.3257 15.3863 17.6772 14.7032L24.815 13.9701C25.6892 15.2523 26.5174 16.562 27.2372 17.9389ZM25.7891 10.2922C25.4504 11.1867 25.0878 12.0719 24.7275 12.9588L17.7741 13.6729C17.6913 13.563 17.6046 13.456 17.5141 13.3524C16.693 12.4225 15.8666 11.4984 15.0415 10.5716C15.049 10.5623 15.0566 10.5553 15.0641 10.5469C14.7311 10.2144 14.3973 9.88185 14.0644 9.54846L16.0001 3.72035C16.1325 3.68364 16.2674 3.65704 16.4038 3.64076C17.4562 3.53376 18.5098 3.4126 19.5648 3.35159C20.2108 3.31533 20.8604 3.29455 21.5174 3.34097L26.3069 8.73931C26.142 9.26017 25.981 9.78236 25.7891 10.2922ZM27.3959 5.40365C28.6801 6.68557 29.7197 8.191 30.4636 9.84603C29.5685 9.23375 28.6105 8.71895 27.6059 8.31041C27.4477 8.2464 27.2876 8.18712 27.1258 8.13266L22.4115 2.81923C22.4442 2.58975 22.4614 2.35982 22.4685 2.12813C24.3132 2.87993 25.9887 3.99368 27.3959 5.40365ZM12.0017 1.84913C12.0203 1.86283 12.0291 1.87433 12.0397 1.87743C13.1173 2.24972 14.0975 2.798 15.0216 3.44842L13.2132 8.8945C13.204 8.89693 13.195 8.90004 13.1862 8.90379C12.8161 9.05678 12.439 9.19385 12.0746 9.35966C10.5735 10.0419 9.10995 10.7976 7.7313 11.7035L4.16263 9.59223C4.16653 9.48119 4.18756 9.37142 4.22497 9.2668C4.46462 8.62832 4.70029 7.98631 4.97134 7.36065C5.18084 6.88055 5.41657 6.41234 5.67747 5.95812C7.40101 4.04404 9.59141 2.60957 12.0348 1.79474C12.0238 1.81199 12.0123 1.83011 12.0017 1.84913Z" fill="white"/>
</g>
</g>
<defs>
<clipPath id="clip0_2020_8820">
<rect width="32" height="32" fill="white" transform="translate(0.799805)"/>
</clipPath>
</defs>
</svg>
