<svg width="33" height="32" viewBox="0 0 33 32" fill="none" xmlns="http://www.w3.org/2000/svg">
<g id="vollyball">
<g id="Group">
<path id="Vector" d="M25.3869 6.81333C22.9335 4.36 19.6669 3 16.2002 3C12.7335 3 9.46686 4.34667 7.01353 6.81333C4.5602 9.26667 3.2002 12.5333 3.2002 16C3.2002 19.4667 4.54686 22.7333 7.01353 25.1867C9.46686 27.64 12.7335 29 16.2002 29C19.6669 29 22.9335 27.6533 25.3869 25.1867C27.8402 22.7333 29.2002 19.4667 29.2002 16C29.2002 12.5333 27.8535 9.26667 25.3869 6.81333ZM24.6402 23.04L17.6002 16L19.9869 13.6133C21.4135 14.84 23.8002 16.4133 27.1335 16.9467C26.9514 19.1889 26.0752 21.3187 24.6269 23.04H24.6402ZM5.25353 17.08C6.6802 17.3467 8.89353 18.0533 10.9735 19.8133L7.74686 23.04C6.33393 21.3501 5.46481 19.2726 5.25353 17.08ZM7.74686 8.96L14.7869 16L12.3869 18.4C10.3606 16.644 7.88642 15.4854 5.2402 15.0533C5.41987 12.8145 6.29649 10.6883 7.74686 8.97333V8.96ZM20.0002 10.7733C18.6131 9.13296 17.6718 7.16305 17.2669 5.05333C19.4669 5.26667 21.5335 6.13333 23.2269 7.54667L20.0002 10.7733ZM18.5869 12.1867L16.1869 14.5867L9.1602 7.54667C10.8843 6.11139 13.0055 5.23684 15.2402 5.04C15.5069 6.69333 16.2935 9.54667 18.5869 12.1867ZM12.3869 21.2133C13.3869 22.4 14.6135 24.32 15.1069 26.9467C12.9183 26.7353 10.8451 25.866 9.1602 24.4533L12.3869 21.2267V21.2133ZM13.8002 19.8L16.1869 17.4133L23.2269 24.4533C21.5023 25.8963 19.3743 26.7717 17.1335 26.96C16.6002 23.6267 15.0269 21.2267 13.8002 19.8133V19.8ZM21.4135 12.1867L24.6402 8.96C26.0529 10.6449 26.9222 12.7181 27.1335 14.9067C25.0183 14.5145 23.042 13.5769 21.4002 12.1867H21.4135Z" fill="#141414"/>
</g>
</g>
</svg>
